<svg aria-hidden="true" style="width:0;height:0;position:absolute;overflow:hidden" xmlns="http://www.w3.org/2000/svg"><defs><symbol id="logo" viewBox="0 0 24 24"><path d="M19.82 2.704H4.18C2.976 2.704 2 3.634 2 4.78v14.892c0 1.146.976 2.076 2.18 2.076h15.64c1.204 0 2.18-.93 2.18-2.076V4.78c0-1.146-.976-2.076-2.18-2.076ZM7 2.704v19.044M17 2.704v19.044M2 12.226h20M2 7.465h5M2 16.987h5M17 16.987h5M17 7.465h5" stroke="#fff" stroke-width="2" stroke-linecap="round" stroke-linejoin="round"/></symbol><svg id="heart" xmlns="http://www.w3.org/2000/svg" fill="#FF6B08"><path d="m7 12.88-.98-.98C2.38 8.68 0 6.51 0 3.85 0 1.68 1.68 0 3.85 0 5.04 0 6.23.56 7 1.47 7.77.56 8.96 0 10.15 0 12.32 0 14 1.68 14 3.85c0 2.66-2.38 4.83-6.02 8.05l-.98.98Z"/></svg></defs></svg>