

<svg aria-hidden="true" style="position: absolute; width: 0; height: 0; overflow: hidden;" version="1.1" xmlns="http://www.w3.org/2000/svg" xmlns:xlink="http://www.w3.org/1999/xlink">
<defs>
<!-- додавати сюди -->
<!--footer heart icons-->
<svg id="heart" xmlns="http://www.w3.org/2000/svg" fill="#FF6B08">
    <path d="m7 12.88-.98-.98C2.38 8.68 0 6.51 0 3.85 0 1.68 1.68 0 3.85 0 5.04 0 6.23.56 7 1.47 7.77.56 8.96 0 10.15 0 12.32 0 14 1.68 14 3.85c0 2.66-2.38 4.83-6.02 8.05l-.98.98Z"/>
</svg>
<symbol id="logo" viewBox="0 0 24 24">
        <path d="M19.82 2.70435H4.18C2.97602 2.70435 2 3.63369 2 4.78008V19.6721C2 20.8185 2.97602 21.7478 4.18 21.7478H19.82C21.024 21.7478 22 20.8185 22 19.6721V4.78008C22 3.63369 21.024 2.70435 19.82 2.70435Z" stroke="white" stroke-width="2" stroke-linecap="round" stroke-linejoin="round"/>
        <path d="M7 2.70435V21.7478" stroke="white" stroke-width="2" stroke-linecap="round" stroke-linejoin="round"/>
        <path d="M17 2.70435V21.7478" stroke="white" stroke-width="2" stroke-linecap="round" stroke-linejoin="round"/>
        <path d="M2 12.2261H22" stroke="white" stroke-width="2" stroke-linecap="round" stroke-linejoin="round"/>
        <path d="M2 7.46521H7" stroke="white" stroke-width="2" stroke-linecap="round" stroke-linejoin="round"/>
        <path d="M2 16.9869H7" stroke="white" stroke-width="2" stroke-linecap="round" stroke-linejoin="round"/>
        <path d="M17 16.9869H22" stroke="white" stroke-width="2" stroke-linecap="round" stroke-linejoin="round"/>
        <path d="M17 7.46521H22" stroke="white" stroke-width="2" stroke-linecap="round" stroke-linejoin="round"/>
    </symbol>
</defs>
</svg>
